<mxfile host="app.diagrams.net" modified="2020-12-29T12:18:58.907Z" agent="5.0 (Macintosh; Intel Mac OS X 11_1_0) AppleWebKit/537.36 (KHTML, like Gecko) Chrome/87.0.4280.88 Safari/537.36" etag="EPxXi-8wESgNDeMMRt41" version="14.1.3" type="github">
  <diagram id="i16Sg1lCr5jE3cdGVOMp" name="Page-1">
    <mxGraphModel dx="946" dy="534" grid="1" gridSize="10" guides="1" tooltips="1" connect="1" arrows="1" fold="1" page="1" pageScale="1" pageWidth="827" pageHeight="1169" math="0" shadow="0">
      <root>
        <mxCell id="0" />
        <mxCell id="1" parent="0" />
        <mxCell id="Rp9OanT5fd7kZXrsBDnx-1" value="天猫" style="rounded=1;whiteSpace=wrap;html=1;" vertex="1" parent="1">
          <mxGeometry x="220" y="130" width="80" height="40" as="geometry" />
        </mxCell>
        <mxCell id="Rp9OanT5fd7kZXrsBDnx-2" value="考拉分销" style="rounded=1;whiteSpace=wrap;html=1;" vertex="1" parent="1">
          <mxGeometry x="400" y="130" width="80" height="40" as="geometry" />
        </mxCell>
        <mxCell id="Rp9OanT5fd7kZXrsBDnx-3" value="考拉交易" style="rounded=1;whiteSpace=wrap;html=1;" vertex="1" parent="1">
          <mxGeometry x="570" y="130" width="80" height="40" as="geometry" />
        </mxCell>
        <mxCell id="Rp9OanT5fd7kZXrsBDnx-4" value="考拉履约" style="rounded=1;whiteSpace=wrap;html=1;" vertex="1" parent="1">
          <mxGeometry x="730" y="130" width="80" height="40" as="geometry" />
        </mxCell>
        <mxCell id="Rp9OanT5fd7kZXrsBDnx-7" value="" style="endArrow=none;dashed=1;html=1;entryX=0.5;entryY=1;entryDx=0;entryDy=0;" edge="1" parent="1" source="Rp9OanT5fd7kZXrsBDnx-56" target="Rp9OanT5fd7kZXrsBDnx-1">
          <mxGeometry width="50" height="50" relative="1" as="geometry">
            <mxPoint x="260" y="560" as="sourcePoint" />
            <mxPoint x="240" y="250" as="targetPoint" />
          </mxGeometry>
        </mxCell>
        <mxCell id="Rp9OanT5fd7kZXrsBDnx-9" value="" style="endArrow=none;dashed=1;html=1;entryX=0.5;entryY=1;entryDx=0;entryDy=0;" edge="1" parent="1" source="Rp9OanT5fd7kZXrsBDnx-22">
          <mxGeometry width="50" height="50" relative="1" as="geometry">
            <mxPoint x="439.5" y="510" as="sourcePoint" />
            <mxPoint x="439.5" y="170" as="targetPoint" />
          </mxGeometry>
        </mxCell>
        <mxCell id="Rp9OanT5fd7kZXrsBDnx-10" value="" style="endArrow=none;dashed=1;html=1;entryX=0.5;entryY=1;entryDx=0;entryDy=0;" edge="1" parent="1" source="Rp9OanT5fd7kZXrsBDnx-32">
          <mxGeometry width="50" height="50" relative="1" as="geometry">
            <mxPoint x="609.5" y="510" as="sourcePoint" />
            <mxPoint x="609.5" y="170" as="targetPoint" />
          </mxGeometry>
        </mxCell>
        <mxCell id="Rp9OanT5fd7kZXrsBDnx-11" value="" style="endArrow=none;dashed=1;html=1;entryX=0.5;entryY=1;entryDx=0;entryDy=0;" edge="1" parent="1">
          <mxGeometry width="50" height="50" relative="1" as="geometry">
            <mxPoint x="770" y="560" as="sourcePoint" />
            <mxPoint x="769.5" y="170" as="targetPoint" />
          </mxGeometry>
        </mxCell>
        <mxCell id="Rp9OanT5fd7kZXrsBDnx-12" value="用户" style="rounded=1;whiteSpace=wrap;html=1;" vertex="1" parent="1">
          <mxGeometry x="60" y="130" width="80" height="40" as="geometry" />
        </mxCell>
        <mxCell id="Rp9OanT5fd7kZXrsBDnx-13" value="" style="endArrow=none;dashed=1;html=1;entryX=0.5;entryY=1;entryDx=0;entryDy=0;" edge="1" parent="1" source="Rp9OanT5fd7kZXrsBDnx-14">
          <mxGeometry width="50" height="50" relative="1" as="geometry">
            <mxPoint x="99.5" y="510" as="sourcePoint" />
            <mxPoint x="99.5" y="170" as="targetPoint" />
          </mxGeometry>
        </mxCell>
        <mxCell id="Rp9OanT5fd7kZXrsBDnx-14" value="" style="rounded=0;whiteSpace=wrap;html=1;rotation=90;" vertex="1" parent="1">
          <mxGeometry x="65" y="220" width="70" height="20" as="geometry" />
        </mxCell>
        <mxCell id="Rp9OanT5fd7kZXrsBDnx-16" value="" style="endArrow=none;dashed=1;html=1;entryX=1;entryY=0.5;entryDx=0;entryDy=0;" edge="1" parent="1" target="Rp9OanT5fd7kZXrsBDnx-14">
          <mxGeometry width="50" height="50" relative="1" as="geometry">
            <mxPoint x="100" y="560" as="sourcePoint" />
            <mxPoint x="99.5" y="170" as="targetPoint" />
          </mxGeometry>
        </mxCell>
        <mxCell id="Rp9OanT5fd7kZXrsBDnx-18" value="" style="rounded=0;whiteSpace=wrap;html=1;rotation=90;" vertex="1" parent="1">
          <mxGeometry x="230" y="220" width="70" height="20" as="geometry" />
        </mxCell>
        <mxCell id="Rp9OanT5fd7kZXrsBDnx-20" value="" style="endArrow=classic;html=1;exitX=0.25;exitY=0;exitDx=0;exitDy=0;entryX=0.25;entryY=1;entryDx=0;entryDy=0;" edge="1" parent="1" source="Rp9OanT5fd7kZXrsBDnx-14" target="Rp9OanT5fd7kZXrsBDnx-18">
          <mxGeometry width="50" height="50" relative="1" as="geometry">
            <mxPoint x="390" y="330" as="sourcePoint" />
            <mxPoint x="440" y="280" as="targetPoint" />
          </mxGeometry>
        </mxCell>
        <mxCell id="Rp9OanT5fd7kZXrsBDnx-21" value="下单支付" style="text;html=1;align=center;verticalAlign=middle;resizable=0;points=[];autosize=1;" vertex="1" parent="1">
          <mxGeometry x="150" y="190" width="60" height="20" as="geometry" />
        </mxCell>
        <mxCell id="Rp9OanT5fd7kZXrsBDnx-22" value="" style="rounded=0;whiteSpace=wrap;html=1;rotation=90;" vertex="1" parent="1">
          <mxGeometry x="382.5" y="252.5" width="115" height="20" as="geometry" />
        </mxCell>
        <mxCell id="Rp9OanT5fd7kZXrsBDnx-24" value="" style="endArrow=none;dashed=1;html=1;entryX=1;entryY=0.5;entryDx=0;entryDy=0;" edge="1" parent="1" source="Rp9OanT5fd7kZXrsBDnx-49" target="Rp9OanT5fd7kZXrsBDnx-22">
          <mxGeometry width="50" height="50" relative="1" as="geometry">
            <mxPoint x="440" y="560" as="sourcePoint" />
            <mxPoint x="439.5" y="170" as="targetPoint" />
          </mxGeometry>
        </mxCell>
        <mxCell id="Rp9OanT5fd7kZXrsBDnx-25" value="" style="endArrow=classic;html=1;exitX=0.4;exitY=-0.05;exitDx=0;exitDy=0;entryX=0.157;entryY=1;entryDx=0;entryDy=0;exitPerimeter=0;entryPerimeter=0;" edge="1" parent="1" source="Rp9OanT5fd7kZXrsBDnx-18" target="Rp9OanT5fd7kZXrsBDnx-22">
          <mxGeometry width="50" height="50" relative="1" as="geometry">
            <mxPoint x="280" y="229" as="sourcePoint" />
            <mxPoint x="425" y="229" as="targetPoint" />
          </mxGeometry>
        </mxCell>
        <mxCell id="Rp9OanT5fd7kZXrsBDnx-26" value="发送创单消息" style="edgeLabel;html=1;align=center;verticalAlign=middle;resizable=0;points=[];" vertex="1" connectable="0" parent="Rp9OanT5fd7kZXrsBDnx-25">
          <mxGeometry x="-0.1559" y="4" relative="1" as="geometry">
            <mxPoint as="offset" />
          </mxGeometry>
        </mxCell>
        <mxCell id="Rp9OanT5fd7kZXrsBDnx-27" value="" style="endArrow=classic;html=1;exitX=0.391;exitY=0;exitDx=0;exitDy=0;entryX=0.75;entryY=0;entryDx=0;entryDy=0;exitPerimeter=0;" edge="1" parent="1" source="Rp9OanT5fd7kZXrsBDnx-22" target="Rp9OanT5fd7kZXrsBDnx-22">
          <mxGeometry width="50" height="50" relative="1" as="geometry">
            <mxPoint x="390" y="330" as="sourcePoint" />
            <mxPoint x="520" y="260" as="targetPoint" />
            <Array as="points">
              <mxPoint x="470" y="250" />
              <mxPoint x="490" y="250" />
              <mxPoint x="490" y="291" />
            </Array>
          </mxGeometry>
        </mxCell>
        <mxCell id="Rp9OanT5fd7kZXrsBDnx-29" value="拉取创单消息" style="text;html=1;align=center;verticalAlign=middle;resizable=0;points=[];autosize=1;" vertex="1" parent="1">
          <mxGeometry x="450" y="260" width="90" height="20" as="geometry" />
        </mxCell>
        <mxCell id="Rp9OanT5fd7kZXrsBDnx-30" value="" style="endArrow=classic;html=1;exitX=0.913;exitY=-0.05;exitDx=0;exitDy=0;exitPerimeter=0;" edge="1" parent="1" source="Rp9OanT5fd7kZXrsBDnx-22">
          <mxGeometry width="50" height="50" relative="1" as="geometry">
            <mxPoint x="460" y="310" as="sourcePoint" />
            <mxPoint x="600" y="310" as="targetPoint" />
          </mxGeometry>
        </mxCell>
        <mxCell id="Rp9OanT5fd7kZXrsBDnx-32" value="" style="rounded=0;whiteSpace=wrap;html=1;rotation=90;" vertex="1" parent="1">
          <mxGeometry x="575" y="320" width="70" height="20" as="geometry" />
        </mxCell>
        <mxCell id="Rp9OanT5fd7kZXrsBDnx-33" value="" style="endArrow=none;dashed=1;html=1;entryX=1;entryY=0.5;entryDx=0;entryDy=0;" edge="1" parent="1" source="Rp9OanT5fd7kZXrsBDnx-41" target="Rp9OanT5fd7kZXrsBDnx-32">
          <mxGeometry width="50" height="50" relative="1" as="geometry">
            <mxPoint x="609.5" y="510" as="sourcePoint" />
            <mxPoint x="609.5" y="170" as="targetPoint" />
          </mxGeometry>
        </mxCell>
        <mxCell id="Rp9OanT5fd7kZXrsBDnx-34" value="模拟下单支付" style="text;html=1;align=center;verticalAlign=middle;resizable=0;points=[];autosize=1;" vertex="1" parent="1">
          <mxGeometry x="480" y="310" width="90" height="20" as="geometry" />
        </mxCell>
        <mxCell id="Rp9OanT5fd7kZXrsBDnx-36" value="" style="rounded=0;whiteSpace=wrap;html=1;rotation=90;" vertex="1" parent="1">
          <mxGeometry x="702.5" y="362.5" width="135" height="20" as="geometry" />
        </mxCell>
        <mxCell id="Rp9OanT5fd7kZXrsBDnx-37" value="" style="endArrow=classic;html=1;" edge="1" parent="1">
          <mxGeometry width="50" height="50" relative="1" as="geometry">
            <mxPoint x="620" y="330" as="sourcePoint" />
            <mxPoint x="759" y="330.01" as="targetPoint" />
          </mxGeometry>
        </mxCell>
        <mxCell id="Rp9OanT5fd7kZXrsBDnx-38" value="推送履约" style="text;html=1;align=center;verticalAlign=middle;resizable=0;points=[];autosize=1;" vertex="1" parent="1">
          <mxGeometry x="650" y="310" width="60" height="20" as="geometry" />
        </mxCell>
        <mxCell id="Rp9OanT5fd7kZXrsBDnx-41" value="" style="rounded=0;whiteSpace=wrap;html=1;rotation=90;" vertex="1" parent="1">
          <mxGeometry x="583.75" y="416.25" width="52.5" height="20" as="geometry" />
        </mxCell>
        <mxCell id="Rp9OanT5fd7kZXrsBDnx-42" value="" style="endArrow=none;dashed=1;html=1;entryX=1;entryY=0.5;entryDx=0;entryDy=0;" edge="1" parent="1" source="Rp9OanT5fd7kZXrsBDnx-73" target="Rp9OanT5fd7kZXrsBDnx-41">
          <mxGeometry width="50" height="50" relative="1" as="geometry">
            <mxPoint x="610" y="560" as="sourcePoint" />
            <mxPoint x="610" y="365" as="targetPoint" />
          </mxGeometry>
        </mxCell>
        <mxCell id="Rp9OanT5fd7kZXrsBDnx-47" value="" style="endArrow=classic;html=1;dashed=1;exitX=0.381;exitY=1.05;exitDx=0;exitDy=0;exitPerimeter=0;" edge="1" parent="1" source="Rp9OanT5fd7kZXrsBDnx-41">
          <mxGeometry width="50" height="50" relative="1" as="geometry">
            <mxPoint x="550" y="419.5" as="sourcePoint" />
            <mxPoint x="450" y="419.5" as="targetPoint" />
            <Array as="points">
              <mxPoint x="527" y="419.5" />
              <mxPoint x="470" y="419.5" />
            </Array>
          </mxGeometry>
        </mxCell>
        <mxCell id="Rp9OanT5fd7kZXrsBDnx-48" value="发货消息" style="edgeLabel;html=1;align=center;verticalAlign=middle;resizable=0;points=[];" vertex="1" connectable="0" parent="Rp9OanT5fd7kZXrsBDnx-47">
          <mxGeometry x="-0.2116" relative="1" as="geometry">
            <mxPoint x="-15.000000000000004" y="-3.3399999999999963" as="offset" />
          </mxGeometry>
        </mxCell>
        <mxCell id="Rp9OanT5fd7kZXrsBDnx-49" value="" style="rounded=0;whiteSpace=wrap;html=1;rotation=90;" vertex="1" parent="1">
          <mxGeometry x="410" y="416.25" width="60" height="20" as="geometry" />
        </mxCell>
        <mxCell id="Rp9OanT5fd7kZXrsBDnx-55" value="" style="endArrow=none;dashed=1;html=1;entryX=1;entryY=0.5;entryDx=0;entryDy=0;" edge="1" parent="1" source="Rp9OanT5fd7kZXrsBDnx-70" target="Rp9OanT5fd7kZXrsBDnx-49">
          <mxGeometry width="50" height="50" relative="1" as="geometry">
            <mxPoint x="440" y="560" as="sourcePoint" />
            <mxPoint x="440" y="320" as="targetPoint" />
          </mxGeometry>
        </mxCell>
        <mxCell id="Rp9OanT5fd7kZXrsBDnx-56" value="" style="rounded=0;whiteSpace=wrap;html=1;rotation=90;" vertex="1" parent="1">
          <mxGeometry x="228.75" y="410" width="62.5" height="20" as="geometry" />
        </mxCell>
        <mxCell id="Rp9OanT5fd7kZXrsBDnx-58" value="" style="endArrow=none;dashed=1;html=1;entryX=1;entryY=0.5;entryDx=0;entryDy=0;" edge="1" parent="1" source="Rp9OanT5fd7kZXrsBDnx-65" target="Rp9OanT5fd7kZXrsBDnx-56">
          <mxGeometry width="50" height="50" relative="1" as="geometry">
            <mxPoint x="260" y="560" as="sourcePoint" />
            <mxPoint x="260" y="170" as="targetPoint" />
          </mxGeometry>
        </mxCell>
        <mxCell id="Rp9OanT5fd7kZXrsBDnx-59" value="" style="endArrow=classic;html=1;dashed=1;" edge="1" parent="1">
          <mxGeometry width="50" height="50" relative="1" as="geometry">
            <mxPoint x="760" y="409" as="sourcePoint" />
            <mxPoint x="620" y="409" as="targetPoint" />
            <Array as="points">
              <mxPoint x="640" y="409" />
            </Array>
          </mxGeometry>
        </mxCell>
        <mxCell id="Rp9OanT5fd7kZXrsBDnx-60" value="通知发货" style="edgeLabel;html=1;align=center;verticalAlign=middle;resizable=0;points=[];" vertex="1" connectable="0" parent="Rp9OanT5fd7kZXrsBDnx-59">
          <mxGeometry x="-0.2116" relative="1" as="geometry">
            <mxPoint x="-15.000000000000004" y="-3.3399999999999963" as="offset" />
          </mxGeometry>
        </mxCell>
        <mxCell id="Rp9OanT5fd7kZXrsBDnx-61" value="" style="endArrow=classic;html=1;dashed=1;exitX=0.646;exitY=1.1;exitDx=0;exitDy=0;exitPerimeter=0;" edge="1" parent="1" source="Rp9OanT5fd7kZXrsBDnx-49">
          <mxGeometry width="50" height="50" relative="1" as="geometry">
            <mxPoint x="419" y="435.75250000000005" as="sourcePoint" />
            <mxPoint x="270" y="435.25" as="targetPoint" />
            <Array as="points">
              <mxPoint x="347" y="435.25" />
              <mxPoint x="290" y="435.25" />
            </Array>
          </mxGeometry>
        </mxCell>
        <mxCell id="Rp9OanT5fd7kZXrsBDnx-62" value="通知发货" style="edgeLabel;html=1;align=center;verticalAlign=middle;resizable=0;points=[];" vertex="1" connectable="0" parent="Rp9OanT5fd7kZXrsBDnx-61">
          <mxGeometry x="-0.2116" relative="1" as="geometry">
            <mxPoint x="-15.000000000000004" y="-3.3399999999999963" as="offset" />
          </mxGeometry>
        </mxCell>
        <mxCell id="Rp9OanT5fd7kZXrsBDnx-65" value="" style="rounded=0;whiteSpace=wrap;html=1;rotation=90;" vertex="1" parent="1">
          <mxGeometry x="225" y="500" width="70" height="20" as="geometry" />
        </mxCell>
        <mxCell id="Rp9OanT5fd7kZXrsBDnx-66" value="" style="endArrow=none;dashed=1;html=1;entryX=1;entryY=0.5;entryDx=0;entryDy=0;" edge="1" parent="1" target="Rp9OanT5fd7kZXrsBDnx-65">
          <mxGeometry width="50" height="50" relative="1" as="geometry">
            <mxPoint x="260" y="560" as="sourcePoint" />
            <mxPoint x="260" y="451.25" as="targetPoint" />
          </mxGeometry>
        </mxCell>
        <mxCell id="Rp9OanT5fd7kZXrsBDnx-67" value="" style="endArrow=classic;html=1;entryX=0.25;entryY=1;entryDx=0;entryDy=0;" edge="1" parent="1">
          <mxGeometry width="50" height="50" relative="1" as="geometry">
            <mxPoint x="100" y="490" as="sourcePoint" />
            <mxPoint x="252.5" y="490" as="targetPoint" />
          </mxGeometry>
        </mxCell>
        <mxCell id="Rp9OanT5fd7kZXrsBDnx-68" value="用户确认收货" style="text;html=1;align=center;verticalAlign=middle;resizable=0;points=[];autosize=1;" vertex="1" parent="1">
          <mxGeometry x="125" y="470" width="90" height="20" as="geometry" />
        </mxCell>
        <mxCell id="Rp9OanT5fd7kZXrsBDnx-69" value="" style="endArrow=classic;html=1;entryX=0.25;entryY=1;entryDx=0;entryDy=0;exitX=0.371;exitY=-0.1;exitDx=0;exitDy=0;exitPerimeter=0;" edge="1" parent="1" source="Rp9OanT5fd7kZXrsBDnx-65">
          <mxGeometry width="50" height="50" relative="1" as="geometry">
            <mxPoint x="280" y="500" as="sourcePoint" />
            <mxPoint x="432.5" y="500" as="targetPoint" />
          </mxGeometry>
        </mxCell>
        <mxCell id="Rp9OanT5fd7kZXrsBDnx-70" value="" style="rounded=0;whiteSpace=wrap;html=1;rotation=90;" vertex="1" parent="1">
          <mxGeometry x="410" y="510" width="60" height="20" as="geometry" />
        </mxCell>
        <mxCell id="Rp9OanT5fd7kZXrsBDnx-71" value="" style="endArrow=none;dashed=1;html=1;entryX=1;entryY=0.5;entryDx=0;entryDy=0;" edge="1" parent="1" target="Rp9OanT5fd7kZXrsBDnx-70">
          <mxGeometry width="50" height="50" relative="1" as="geometry">
            <mxPoint x="440" y="560" as="sourcePoint" />
            <mxPoint x="440" y="456.25" as="targetPoint" />
          </mxGeometry>
        </mxCell>
        <mxCell id="Rp9OanT5fd7kZXrsBDnx-72" value="发送确认收货消息" style="text;html=1;align=center;verticalAlign=middle;resizable=0;points=[];autosize=1;" vertex="1" parent="1">
          <mxGeometry x="290" y="480" width="110" height="20" as="geometry" />
        </mxCell>
        <mxCell id="Rp9OanT5fd7kZXrsBDnx-73" value="" style="rounded=0;whiteSpace=wrap;html=1;rotation=90;" vertex="1" parent="1">
          <mxGeometry x="580" y="510" width="60" height="20" as="geometry" />
        </mxCell>
        <mxCell id="Rp9OanT5fd7kZXrsBDnx-74" value="" style="endArrow=none;dashed=1;html=1;entryX=1;entryY=0.5;entryDx=0;entryDy=0;" edge="1" parent="1" target="Rp9OanT5fd7kZXrsBDnx-73">
          <mxGeometry width="50" height="50" relative="1" as="geometry">
            <mxPoint x="610" y="560" as="sourcePoint" />
            <mxPoint x="610" y="452.5" as="targetPoint" />
          </mxGeometry>
        </mxCell>
        <mxCell id="Rp9OanT5fd7kZXrsBDnx-75" value="" style="endArrow=classic;html=1;entryX=0.25;entryY=1;entryDx=0;entryDy=0;" edge="1" parent="1">
          <mxGeometry width="50" height="50" relative="1" as="geometry">
            <mxPoint x="449.75" y="529" as="sourcePoint" />
            <mxPoint x="600.25" y="529" as="targetPoint" />
          </mxGeometry>
        </mxCell>
        <mxCell id="Rp9OanT5fd7kZXrsBDnx-76" value="通知交易确认收货" style="edgeLabel;html=1;align=center;verticalAlign=middle;resizable=0;points=[];" vertex="1" connectable="0" parent="Rp9OanT5fd7kZXrsBDnx-75">
          <mxGeometry x="-0.1196" y="1" relative="1" as="geometry">
            <mxPoint as="offset" />
          </mxGeometry>
        </mxCell>
      </root>
    </mxGraphModel>
  </diagram>
</mxfile>
